<svg width="1200" height="632" viewBox="0 0 1200 632" fill="none" xmlns="http://www.w3.org/2000/svg">
<line y1="-5" x2="860.77" y2="-5" transform="matrix(0.699264 0.714864 -0.660438 0.750881 527.706 16.6667)" stroke="#006A96" stroke-opacity="0.6" stroke-width="10"/>
<line y1="-5" x2="860.77" y2="-5" transform="matrix(0.699264 0.714864 -0.660438 0.750881 414.158 16.6667)" stroke="#006A96" stroke-opacity="0.6" stroke-width="10"/>
<line y1="-5" x2="860.77" y2="-5" transform="matrix(0.699264 0.714864 -0.660438 0.750881 21.2617 16.6667)" stroke="#006A96" stroke-opacity="0.6" stroke-width="10"/>
<line y1="-5" x2="431.587" y2="-5" transform="matrix(0.696153 0.717893 -0.663669 0.748027 198.115 303.75)" stroke="#006A96" stroke-opacity="0.6" stroke-width="10"/>
<line y1="-5" x2="140.626" y2="-5" transform="matrix(0.664538 0.747255 -0.695313 0.718707 4.17871 508.5)" stroke="#006A96" stroke-opacity="0.6" stroke-width="10"/>
<line y1="-5" x2="292.183" y2="-5" transform="matrix(0.694701 -0.719298 0.665169 0.746693 7.19336 511.75)" stroke="#006A96" stroke-opacity="0.6" stroke-width="10"/>
<line y1="-5" x2="441.012" y2="-5" transform="matrix(0.68186 0.731483 -0.679412 0.733757 904.525 8)" stroke="#006A96" stroke-opacity="0.6" stroke-width="10"/>
</svg>
